<?xml version="1.0" encoding="UTF-8"?>
<svg xmlns="http://www.w3.org/2000/svg" xmlns:xlink="http://www.w3.org/1999/xlink" clip-rule="evenodd" fill-rule="evenodd" height="1808.6" preserveAspectRatio="xMidYMid meet" stroke-linejoin="round" stroke-miterlimit="2" version="1.0" viewBox="583.7 321.3 1383.4 1808.6" width="1383.4" zoomAndPan="magnify"><g id="change1_1"><path d="M1519.01,1998.64L1520.61,2107.07L1555.53,2058.83L1577.94,2098.85L1578.65,1998.55L1519.01,1998.64Z" fill="#55ad0b" transform="scale(-1 1) rotate(-42.01 366.078 5198.603)"/></g><g id="change2_1"><path d="M558.747 264.906H1915.5969999999998V2003.856H558.747z" fill="#0b2a28" transform="matrix(-.98832 0 0 .99473 2476.94 57.777)"/></g><g id="change3_1"><path d="M1944.47,256.203L583.734,258.991L575.961,332.878L558.747,2003.85L1915.6,2003.57L1915.6,332.595L1944.47,256.203Z" fill="#eaf1d9" transform="matrix(-.88238 0 0 .92134 2367.19 142.49)"/></g><g transform="matrix(-.95087 0 0 .92134 2498.38 204.855)"><g id="change4_1"><path d="M558.747 264.906H1915.5969999999998V2003.856H558.747z" fill="#1d3837"/></g><clipPath id="a"><path d="M558.747 264.906H1915.5969999999998V2003.856H558.747z"/></clipPath><g clip-path="url(#a)"><g><g id="change5_49"><path d="M1024,976.288C1024,976.288 1074.2,857.12 1231.8,880.405C1295.21,889.775 1413.52,929.701 1479.95,923.948C1578.61,915.404 1615.62,856.674 1615.62,856.674C1615.62,856.674 1542.33,870.66 1505.67,867.24C1426.3,859.835 1246.18,750.348 1139.39,812.248C1032.61,874.148 1024,976.288 1024,976.288Z" fill="#ead67f" transform="matrix(-.26787 -.19942 -.55254 .79052 1336.68 1510.73)"/></g><g><g id="change5_36"><path d="M1024,976.288C1024,976.288 1074.2,857.12 1231.8,880.405C1295.21,889.775 1413.52,929.701 1479.95,923.948C1578.61,915.404 1615.62,856.674 1615.62,856.674C1615.62,856.674 1542.33,870.66 1505.67,867.24C1426.3,859.835 1246.18,750.348 1139.39,812.248C1032.61,874.148 1024,976.288 1024,976.288Z" fill="#ead67f" transform="matrix(.26787 .19942 -.55254 .79052 788.08 1102.307)"/></g><g id="change5_4"><path d="M1024,976.288C1024,976.288 1074.2,857.12 1231.8,880.405C1295.21,889.775 1413.52,929.701 1479.95,923.948C1578.61,915.404 1615.62,856.674 1615.62,856.674C1615.62,856.674 1542.33,870.66 1505.67,867.24C1426.3,859.835 1246.18,750.348 1139.39,812.248C1032.61,874.148 1024,976.288 1024,976.288Z" fill="#ead67f" transform="matrix(.25469 .05777 -.31871 .5109 647.86 1439.753)"/></g></g><g id="change5_13"><path d="M1024,976.288C1024,976.288 1074.2,857.12 1231.8,880.405C1295.21,889.775 1413.52,929.701 1479.95,923.948C1578.61,915.404 1615.62,856.674 1615.62,856.674C1615.62,856.674 1542.33,870.66 1505.67,867.24C1426.3,859.835 1246.18,750.348 1139.39,812.248C1032.61,874.148 1024,976.288 1024,976.288Z" fill="#ead67f" transform="matrix(-.13347 -.2312 -.3692 .4733 1070.647 1754.51)"/></g><g id="change5_14"><path d="M1051.82,329.822C1051.82,329.822 1157.09,427.993 1157.09,548.911C1157.09,669.83 1051.82,768 1051.82,768C1051.82,768 946.55,669.83 946.55,548.911C946.55,427.993 1051.82,329.822 1051.82,329.822Z" fill="#ead67f" transform="matrix(-.17015 -.12667 -.3774 .53995 1061.539 1697.001)"/></g></g><g><g id="change5_21"><path d="M1024,976.288C1024,976.288 1074.2,857.12 1231.8,880.405C1295.21,889.775 1413.52,929.701 1479.95,923.948C1578.61,915.404 1615.62,856.674 1615.62,856.674C1615.62,856.674 1542.33,870.66 1505.67,867.24C1426.3,859.835 1246.18,750.348 1139.39,812.248C1032.61,874.148 1024,976.288 1024,976.288Z" fill="#ead67f" transform="matrix(.26787 -.19942 .55254 .79052 1137.74 1510.73)"/></g><g><g id="change5_25"><path d="M1024,976.288C1024,976.288 1074.2,857.12 1231.8,880.405C1295.21,889.775 1413.52,929.701 1479.95,923.948C1578.61,915.404 1615.62,856.674 1615.62,856.674C1615.62,856.674 1542.33,870.66 1505.67,867.24C1426.3,859.835 1246.18,750.348 1139.39,812.248C1032.61,874.148 1024,976.288 1024,976.288Z" fill="#ead67f" transform="matrix(-.26787 .19942 .55254 .79052 1686.34 1102.307)"/></g><g id="change5_6"><path d="M1024,976.288C1024,976.288 1074.2,857.12 1231.8,880.405C1295.21,889.775 1413.52,929.701 1479.95,923.948C1578.61,915.404 1615.62,856.674 1615.62,856.674C1615.62,856.674 1542.33,870.66 1505.67,867.24C1426.3,859.835 1246.18,750.348 1139.39,812.248C1032.61,874.148 1024,976.288 1024,976.288Z" fill="#ead67f" transform="matrix(-.25469 .05777 .31871 .5109 1826.56 1439.753)"/></g></g><g id="change5_7"><path d="M1024,976.288C1024,976.288 1074.2,857.12 1231.8,880.405C1295.21,889.775 1413.52,929.701 1479.95,923.948C1578.61,915.404 1615.62,856.674 1615.62,856.674C1615.62,856.674 1542.33,870.66 1505.67,867.24C1426.3,859.835 1246.18,750.348 1139.39,812.248C1032.61,874.148 1024,976.288 1024,976.288Z" fill="#ead67f" transform="matrix(.13347 -.2312 .3692 .4733 1403.773 1754.51)"/></g><g id="change5_12"><path d="M1051.82,329.822C1051.82,329.822 1157.09,427.993 1157.09,548.911C1157.09,669.83 1051.82,768 1051.82,768C1051.82,768 946.55,669.83 946.55,548.911C946.55,427.993 1051.82,329.822 1051.82,329.822Z" fill="#ead67f" transform="matrix(.17015 -.12667 .3774 .53995 1412.881 1697.001)"/></g></g><g><g id="change5_18"><path d="M1024,976.288C1024,976.288 1074.2,857.12 1231.8,880.405C1295.21,889.775 1413.52,929.701 1479.95,923.948C1578.61,915.404 1615.62,856.674 1615.62,856.674C1615.62,856.674 1542.33,870.66 1505.67,867.24C1426.3,859.835 1246.18,750.348 1139.39,812.248C1032.61,874.148 1024,976.288 1024,976.288Z" fill="#ead67f" transform="matrix(.26787 .19942 .55254 -.79052 1137.74 756.307)"/></g><g><g id="change5_35"><path d="M1024,976.288C1024,976.288 1074.2,857.12 1231.8,880.405C1295.21,889.775 1413.52,929.701 1479.95,923.948C1578.61,915.404 1615.62,856.674 1615.62,856.674C1615.62,856.674 1542.33,870.66 1505.67,867.24C1426.3,859.835 1246.18,750.348 1139.39,812.248C1032.61,874.148 1024,976.288 1024,976.288Z" fill="#ead67f" transform="matrix(-.26787 -.19942 .55254 -.79052 1686.34 1164.73)"/></g><g id="change5_48"><path d="M1024,976.288C1024,976.288 1074.2,857.12 1231.8,880.405C1295.21,889.775 1413.52,929.701 1479.95,923.948C1578.61,915.404 1615.62,856.674 1615.62,856.674C1615.62,856.674 1542.33,870.66 1505.67,867.24C1426.3,859.835 1246.18,750.348 1139.39,812.248C1032.61,874.148 1024,976.288 1024,976.288Z" fill="#ead67f" transform="matrix(-.25469 -.05777 .31871 -.5109 1826.56 827.284)"/></g></g><g id="change5_23"><path d="M1024,976.288C1024,976.288 1074.2,857.12 1231.8,880.405C1295.21,889.775 1413.52,929.701 1479.95,923.948C1578.61,915.404 1615.62,856.674 1615.62,856.674C1615.62,856.674 1542.33,870.66 1505.67,867.24C1426.3,859.835 1246.18,750.348 1139.39,812.248C1032.61,874.148 1024,976.288 1024,976.288Z" fill="#ead67f" transform="matrix(.13347 .2312 .3692 -.4733 1403.773 512.526)"/></g><g id="change5_53"><path d="M1051.82,329.822C1051.82,329.822 1157.09,427.993 1157.09,548.911C1157.09,669.83 1051.82,768 1051.82,768C1051.82,768 946.55,669.83 946.55,548.911C946.55,427.993 1051.82,329.822 1051.82,329.822Z" fill="#ead67f" transform="matrix(.17015 .12667 .3774 -.53995 1412.881 570.036)"/></g></g><g><g id="change5_52"><path d="M1024,976.288C1024,976.288 1074.2,857.12 1231.8,880.405C1295.21,889.775 1413.52,929.701 1479.95,923.948C1578.61,915.404 1615.62,856.674 1615.62,856.674C1615.62,856.674 1542.33,870.66 1505.67,867.24C1426.3,859.835 1246.18,750.348 1139.39,812.248C1032.61,874.148 1024,976.288 1024,976.288Z" fill="#ead67f" transform="matrix(-.26787 .19942 -.55254 -.79052 1336.68 756.307)"/></g><g><g id="change5_8"><path d="M1024,976.288C1024,976.288 1074.2,857.12 1231.8,880.405C1295.21,889.775 1413.52,929.701 1479.95,923.948C1578.61,915.404 1615.62,856.674 1615.62,856.674C1615.62,856.674 1542.33,870.66 1505.67,867.24C1426.3,859.835 1246.18,750.348 1139.39,812.248C1032.61,874.148 1024,976.288 1024,976.288Z" fill="#ead67f" transform="matrix(.26787 -.19942 -.55254 -.79052 788.08 1164.73)"/></g><g id="change5_22"><path d="M1024,976.288C1024,976.288 1074.2,857.12 1231.8,880.405C1295.21,889.775 1413.52,929.701 1479.95,923.948C1578.61,915.404 1615.62,856.674 1615.62,856.674C1615.62,856.674 1542.33,870.66 1505.67,867.24C1426.3,859.835 1246.18,750.348 1139.39,812.248C1032.61,874.148 1024,976.288 1024,976.288Z" fill="#ead67f" transform="matrix(.25469 -.05777 -.31871 -.5109 647.86 827.284)"/></g></g><g id="change5_11"><path d="M1024,976.288C1024,976.288 1074.2,857.12 1231.8,880.405C1295.21,889.775 1413.52,929.701 1479.95,923.948C1578.61,915.404 1615.62,856.674 1615.62,856.674C1615.62,856.674 1542.33,870.66 1505.67,867.24C1426.3,859.835 1246.18,750.348 1139.39,812.248C1032.61,874.148 1024,976.288 1024,976.288Z" fill="#ead67f" transform="matrix(-.13347 .2312 -.3692 -.4733 1070.647 512.526)"/></g><g id="change5_19"><path d="M1051.82,329.822C1051.82,329.822 1157.09,427.993 1157.09,548.911C1157.09,669.83 1051.82,768 1051.82,768C1051.82,768 946.55,669.83 946.55,548.911C946.55,427.993 1051.82,329.822 1051.82,329.822Z" fill="#ead67f" transform="matrix(-.17015 .12667 -.3774 -.53995 1061.539 570.036)"/></g></g></g></g><g id="change2_2"><path d="M1237.99,997.153C1237.99,949.962 1276.3,911.649 1323.49,911.649C1370.68,911.649 1409,949.962 1409,997.153C1432.59,956.285 1484.93,942.261 1525.8,965.857C1566.66,989.452 1580.69,1041.79 1557.09,1082.66C1597.96,1059.06 1650.3,1073.09 1673.89,1113.95C1697.49,1154.82 1683.47,1207.16 1642.6,1230.76C1689.79,1230.76 1728.1,1269.07 1728.1,1316.26C1728.1,1363.45 1689.79,1401.77 1642.6,1401.77C1683.47,1425.36 1697.49,1477.7 1673.89,1518.57C1650.3,1559.43 1597.96,1573.46 1557.09,1549.86C1580.69,1590.73 1566.66,1643.07 1525.8,1666.66C1484.93,1690.26 1432.59,1676.24 1409,1635.37C1409,1682.56 1370.68,1720.87 1323.49,1720.87C1276.3,1720.87 1237.99,1682.56 1237.99,1635.37C1214.39,1676.24 1162.05,1690.26 1121.18,1666.66C1080.32,1643.07 1066.29,1590.73 1089.89,1549.86C1049.02,1573.46 996.682,1559.43 973.087,1518.57C949.491,1477.7 963.515,1425.36 1004.38,1401.77C957.192,1401.77 918.879,1363.45 918.879,1316.26C918.879,1269.07 957.192,1230.76 1004.38,1230.76C963.515,1207.16 949.491,1154.82 973.087,1113.95C996.682,1073.09 1049.02,1059.06 1089.89,1082.66C1066.29,1041.79 1080.32,989.452 1121.18,965.857C1162.05,942.261 1214.39,956.285 1237.99,997.153Z" fill="#0b2a28" transform="translate(12.339 -71.149)"/></g><g><g><g id="change5_28"><path d="M1333.93,1807.54L1343.01,1814.67C1345.99,1817.31 1350.52,1817.01 1353.12,1813.99C1355.73,1810.97 1355.42,1806.37 1352.45,1803.73L1304.86,1756.05C1300.73,1752.38 1294.59,1752.3 1290.36,1755.85C1286.13,1759.4 1285.06,1765.54 1287.85,1770.35C1287.85,1770.35 1295.47,1785.82 1304.86,1807.45C1312.05,1824.04 1320.39,1844.23 1326.07,1864.26C1332.34,1886.38 1336.31,1908.1 1329.79,1922.73C1319.54,1945.91 1291.38,1973.02 1259.38,1995.87C1228.72,2017.76 1194.28,2035.63 1167.04,2041.16C1141.22,2046.43 1107.12,2042.89 1075.81,2034.54C1053.19,2028.51 1032.02,2019.87 1016.53,2009.7C1009.03,2004.77 1002.87,1999.69 999.193,1994.12C994.74,1987.81 993.365,1979.21 993.481,1969.39C993.6,1959.39 995.033,1948.39 997.507,1936.95C1005.2,1901.4 1021.05,1862.48 1031.38,1837.48C1032.71,1834.78 1031.63,1831.49 1028.97,1830.14C1026.31,1828.79 1023.06,1829.89 1021.73,1832.59C1005.35,1861.02 978.332,1907.95 968.221,1948.24C964.294,1963.88 963.251,1978.63 965.265,1991.16C966.496,1998.82 969.197,2005.64 972.859,2011.68C984.789,2030.23 1013.16,2048.14 1047.62,2059.91C1088.62,2073.9 1137.87,2079.74 1173.32,2072.26C1203.89,2065.75 1242.71,2045.87 1276.93,2020.89C1313.6,1994.13 1344.81,1961.55 1356.35,1934.65C1364.78,1914.88 1361.91,1885.58 1352.82,1856.11C1347.65,1839.34 1340.85,1822.4 1333.93,1807.54Z" fill="#ead67f" transform="matrix(.53354 -.00265 .00261 .52582 624.863 379.053)"/></g><g id="change5_29"><path d="M1395.17,1448.44C1400.98,1460.32 1405.31,1469.08 1405.31,1469.08C1406.8,1472.79 1410.99,1474.58 1414.65,1473.06C1418.31,1471.55 1420.07,1467.3 1418.58,1463.58C1418.58,1463.58 1407.19,1427.48 1398.41,1401.29C1393.42,1386.39 1389.23,1374.82 1389.23,1374.82C1386.82,1368.83 1380.49,1365.48 1374.27,1366.92C1368.04,1368.35 1363.76,1374.14 1364.14,1380.61C1364.14,1380.61 1366.48,1437.83 1370.17,1514.3C1374.95,1613.42 1381.37,1744.9 1385.32,1826.06C1385.95,1838.96 1386.47,1850.58 1387.18,1860.59C1387.57,1866 1388.13,1870.9 1388.51,1875.31C1389.82,1889 1390.3,1907.14 1390.54,1925.48C1391.05,1963.82 1390.31,2002.33 1390.31,2002.33C1390,2005.33 1392.15,2008.03 1395.11,2008.35C1398.07,2008.66 1400.73,2006.48 1401.04,2003.47C1401.04,2003.47 1408.25,1965.24 1413.27,1926.85C1415.76,1907.78 1417.48,1888.82 1418,1874.4C1418.07,1866.12 1418.29,1856.04 1418.03,1844.46C1417.33,1813.29 1414.79,1771.4 1412.28,1725.45C1408.59,1657.8 1404.02,1581.36 1399.85,1517.54C1398.18,1492.04 1396.58,1468.55 1395.17,1448.44Z" fill="#ead67f" transform="matrix(.53354 -.00265 .00261 .52582 624.863 379.053)"/></g><g id="change5_30"><path d="M1412.44,1245.48C1412.42,1246.91 1412.3,1250.73 1411.51,1253.45C1407.22,1268.39 1394.56,1289.13 1379.09,1311.06C1340.73,1365.45 1285.12,1426.21 1285.12,1426.21C1283.04,1428.37 1283.07,1431.84 1285.19,1433.95C1287.32,1436.07 1290.73,1436.04 1292.82,1433.88C1292.82,1433.88 1390.31,1338.3 1423.54,1280.44C1430.93,1267.58 1435.05,1256.15 1435.62,1247.6C1436.11,1240.41 1434.12,1234.6 1430.65,1230.09C1427.36,1225.81 1422.28,1222.64 1414.89,1221.22C1392.07,1216.92 1320.74,1226.95 1239.65,1246.05C1216.13,1251.59 1191.84,1258.11 1167.63,1264.93C1095.15,1285.38 1023.78,1309.77 979.154,1331.41C956.528,1342.38 940.363,1353.26 932.707,1362.39C913.959,1384.76 920.115,1409.75 946.328,1434.58C989.114,1475.11 1092.07,1518.73 1142.06,1556.97C1192.37,1595.42 1257.68,1649.16 1314.83,1689.28C1345.71,1710.97 1374.34,1728.71 1397.15,1738.38C1426.16,1750.65 1475.46,1759.43 1508.52,1751.28C1531.57,1745.59 1547.41,1732.22 1550.49,1710.48C1555.36,1676 1548.32,1591.25 1537.06,1499.74C1532,1458.53 1526.32,1415.89 1520.26,1376.01C1511.8,1320.41 1503.17,1270.12 1497.12,1236.14C1497.12,1236.14 1519.88,1270.44 1519.88,1270.44C1522.01,1273.82 1526.44,1274.82 1529.78,1272.66C1533.11,1270.51 1534.09,1266.01 1531.97,1262.62L1487.62,1187.97C1485.24,1184.18 1480.57,1182.62 1476.43,1184.22C1472.3,1185.83 1469.85,1190.16 1470.57,1194.59C1470.57,1194.59 1481.36,1275.77 1493.82,1374.56C1501.16,1432.75 1509.4,1497 1515.12,1554.49C1521.81,1621.83 1525.68,1679.62 1521.76,1706.2C1520.89,1712.04 1517.2,1715.88 1512.2,1718.55C1505.93,1721.9 1497.92,1723.56 1489.16,1724.28C1462.53,1726.47 1429.45,1719.4 1408.69,1710.5C1387.4,1701.38 1360.82,1684.53 1332.03,1664.16C1275.36,1624.04 1210.62,1570.34 1160.74,1531.91C1118.44,1499.33 1037.78,1462.85 988.578,1427.74C976.447,1419.09 966.359,1410.65 959.843,1402.27C954.676,1395.63 951.845,1389.39 956.936,1383.35C963.76,1375.26 979.907,1366.52 1001.55,1356.66C1034.8,1341.51 1080.43,1325.34 1129.35,1310.1C1166.43,1298.55 1205.45,1287.81 1242.37,1278.08C1287.71,1266.13 1329.9,1255.93 1362.05,1250.21C1384.71,1246.18 1401.94,1243.94 1411.02,1245.21C1411.46,1245.28 1412.08,1245.41 1412.44,1245.48Z" fill="#ead67f" transform="matrix(.53354 -.00265 .00261 .52582 624.863 379.053)"/></g><g id="change5_31"><path d="M1625.77,1952.15C1627.59,1951.24 1629.36,1950.32 1631.11,1949.4C1649.96,1939.5 1665.05,1929.38 1673.92,1919.64C1685.52,1906.9 1688.45,1886.45 1684.8,1865C1681.39,1844.96 1672.82,1824.2 1665.5,1811.44C1661.28,1804.08 1657.05,1799.01 1654.19,1796.68C1646.56,1790.49 1634.69,1789.65 1622.21,1799.15C1608.28,1809.75 1590.91,1835.74 1585.2,1852.84C1580.3,1867.52 1576.81,1888.63 1577.53,1908.73C1577.88,1918.72 1579.29,1928.45 1581.91,1937.16C1534.93,1958.45 1478.85,1980.33 1446.52,2002.61C1437.29,2009.07 1428.1,2017.04 1419.28,2026.04C1397.26,2048.53 1376.92,2077.01 1358.73,2097.68C1349.45,2108.22 1341.31,2116.91 1333.49,2120.2C1324.47,2123.99 1312.35,2120.03 1302.29,2113.49C1291.78,2106.64 1282.61,2096.98 1282.78,2086.78C1282.92,2077.71 1292.44,2060.84 1303.54,2043.05C1323.39,2011.21 1349.37,1977.53 1349.37,1977.53C1351.28,1975.21 1350.97,1971.75 1348.69,1969.82C1346.41,1967.88 1343,1968.18 1341.09,1970.5C1341.09,1970.5 1305.15,2011.38 1282.52,2045.23C1271.54,2061.64 1264.11,2076.89 1263.4,2085.85C1262.15,2102.17 1273.62,2120 1289.81,2131.99C1306.07,2144.01 1326.74,2149.1 1342.27,2143.64C1351.66,2140.33 1362.24,2132.35 1373.48,2121.41C1392.36,2103.02 1413.94,2075.73 1436.57,2053.12C1445.69,2044.01 1454.9,2035.63 1464.34,2029.27C1496.02,2007.5 1551.04,1986.44 1597.11,1965.73C1604.82,1976.08 1614.75,1986.54 1625.22,1994.73C1639.47,2005.88 1654.9,2012.52 1667.5,2012.03C1683.75,2011.39 1710.37,1999.32 1728.84,1981.32C1742.22,1968.29 1751.1,1952.34 1751.4,1936.46C1752.2,1893.24 1744.45,1793.4 1734.06,1685.94C1726.66,1609.38 1718.44,1528.88 1710.45,1462.49C1705.35,1420.02 1700.5,1383.32 1696.89,1357.03C1696.89,1357.03 1716.16,1387.11 1716.16,1387.11C1718.21,1390.54 1722.63,1391.63 1726,1389.54C1729.38,1387.45 1730.46,1382.98 1728.4,1379.55L1689.48,1310.1C1687.16,1306.23 1682.51,1304.52 1678.29,1305.99C1674.07,1307.46 1671.42,1311.71 1671.93,1316.2C1671.93,1316.2 1675.27,1358.13 1680.66,1420.59C1682.49,1441.71 1684.58,1465.16 1686.92,1490.12C1694.48,1570.46 1703.96,1666.46 1710.86,1750.69C1717.49,1831.69 1722.15,1901.68 1721.34,1935.81C1721.08,1946.71 1711.85,1956.55 1701.66,1964.6C1689.84,1973.94 1675.77,1980.76 1666.38,1981.09C1657.64,1981.39 1647.5,1973.69 1637.99,1965C1633.62,1961 1629.46,1956.62 1625.77,1952.15ZM1638.07,1827.49C1636.87,1828.56 1635.63,1829.74 1634.63,1830.85C1626.37,1840.09 1618.04,1853.47 1614.8,1863.07C1611.46,1872.95 1608.98,1886.5 1608.58,1900.13C1608.34,1908.22 1608.75,1916.36 1610.35,1923.65C1612.41,1922.62 1614.42,1921.59 1616.4,1920.55C1631.27,1912.75 1643.53,1905.32 1650.55,1897.66C1656.27,1891.42 1655.29,1880.97 1653.53,1870.42C1651.25,1856.74 1645.95,1842.65 1640.82,1832.41C1640.02,1830.8 1639.04,1829.08 1638.07,1827.49Z" fill="#ead67f" transform="matrix(.53354 -.00265 .00261 .52582 624.863 379.053)"/></g><g id="change5_15"><path d="M1807.37,1482.86L1769.24,1407.27C1767.32,1403.78 1763.26,1402.11 1759.48,1403.25C1755.7,1404.39 1753.2,1408.04 1753.48,1412.04C1753.48,1412.04 1755.36,1475.13 1758.05,1551.73C1759.1,1581.7 1760.06,1613.71 1761.56,1644.8C1763.48,1684.54 1765.91,1722.73 1767.8,1753.17C1768.44,1763.39 1768.97,1772.74 1769.72,1780.95C1770.36,1787.98 1771.24,1794.12 1771.81,1799.36C1773.11,1809.69 1773.95,1823.35 1774.61,1837.22C1775.99,1866.38 1776.52,1895.59 1776.52,1895.59C1776.26,1898.6 1778.45,1901.26 1781.42,1901.53C1784.38,1901.8 1787,1899.57 1787.27,1896.56C1787.27,1896.56 1792.88,1867.51 1796.85,1838.23C1798.84,1823.63 1800.17,1809.17 1800.65,1798.13C1800.78,1792.78 1801.07,1786.49 1801,1779.32C1800.91,1771.02 1800.42,1761.6 1799.9,1751.3C1798.35,1720.78 1796.08,1682.5 1792.95,1642.75C1790.51,1611.7 1787.3,1579.82 1784.42,1549.94C1780.57,1510.15 1776.89,1474.05 1774.26,1448.6C1774.26,1448.59 1797.95,1488.2 1797.95,1488.2C1799.4,1490.84 1802.69,1491.78 1805.29,1490.31C1807.89,1488.84 1808.82,1485.5 1807.37,1482.86Z" fill="#ead67f" transform="matrix(.53354 -.00265 .00261 .52582 624.863 379.053)"/></g><g id="change5_32"><path d="M1602.45,1292.01C1608.63,1302.55 1613.38,1310.38 1613.38,1310.38C1615.07,1314.01 1619.34,1315.56 1622.92,1313.85C1626.5,1312.14 1628.03,1307.8 1626.34,1304.17C1626.34,1304.17 1617.93,1279.24 1609.79,1257.77C1603.61,1241.48 1597.57,1227.41 1597.57,1227.41C1594.84,1221.54 1588.41,1218.44 1582.2,1220C1575.99,1221.56 1571.73,1227.35 1572.02,1233.84C1572.02,1233.84 1573.09,1276.69 1575.02,1331.27C1578.26,1423.43 1583.62,1549 1584.01,1558C1583.98,1559.39 1583.84,1567.31 1584.34,1578.58C1584.74,1587.46 1585.63,1598.31 1586.64,1609.8C1589.84,1646.25 1594.61,1687.83 1594.61,1687.83C1594.61,1690.85 1597.02,1693.31 1600,1693.31C1602.98,1693.31 1605.39,1690.85 1605.39,1687.83C1605.39,1687.83 1610.16,1646.25 1613.36,1609.8C1614.37,1598.31 1615.26,1587.46 1615.66,1578.58C1616.21,1566.13 1615.98,1557.77 1615.98,1557.77C1615.98,1557.53 1615.98,1557.28 1615.97,1557.03C1615.97,1557.03 1609.8,1425.46 1604.59,1329.9C1603.85,1316.39 1603.12,1303.61 1602.45,1292.01Z" fill="#ead67f" transform="matrix(.53354 -.00265 .00261 .52582 624.863 379.053)"/></g><g id="change5_33"><path d="M1159.94,1568.64C1159.31,1569.44 1160.2,1569.64 1161.3,1569.64L1160.98,1569.16L1160.92,1569.1L1160.33,1568.85L1159.94,1568.64L1159.96,1568.62C1160.19,1568.33 1160.52,1568.56 1160.92,1569.1C1161.82,1569.43 1162.79,1569.58 1163.79,1569.52C1163.44,1569.51 1162.29,1569.66 1161.3,1569.64C1161.97,1570.66 1162.81,1572.18 1163.77,1573.47C1172.82,1585.5 1189.7,1613.22 1200.68,1640.24C1204.21,1648.93 1207.17,1657.49 1208.75,1665.48C1210.25,1673.03 1210.76,1679.88 1208.12,1685.14C1204.24,1692.94 1195.65,1699.42 1185.01,1706.03C1146.59,1729.88 1082.26,1749.85 1044.27,1777.08C1007.26,1803.72 967.486,1850.28 935.892,1878.64C926.408,1887.16 917.944,1893.96 910.561,1897.14C903.787,1900.07 895.116,1896.65 887.605,1892.02C882.571,1888.91 878.022,1884.93 874.769,1880.47C872.924,1877.94 871.175,1875.47 870.648,1872.71C868.618,1863.2 871.89,1843.78 876.116,1822.95C883.997,1784.12 895.963,1741.53 895.963,1741.53C897.01,1738.7 895.598,1735.55 892.811,1734.48C890.024,1733.42 886.911,1734.85 885.864,1737.68C885.864,1737.68 862.13,1789.13 849.113,1830.3C842.914,1849.9 839.927,1867.49 840.822,1877.33C842.831,1893.06 854.884,1909.37 870.848,1919.62C887.531,1930.32 907.889,1933.61 923.115,1927.05C932.929,1922.79 944.558,1914.25 957.114,1902.83C987.85,1874.89 1026.11,1828.71 1062.09,1802.32C1099.22,1774.96 1162.62,1754.8 1200.13,1730.63C1215.88,1720.48 1227.48,1709.37 1233.05,1697.58C1237.13,1688.84 1238.34,1678.12 1236.39,1666.29C1234.51,1654.79 1230.04,1641.94 1223.6,1629.4C1209.27,1601.52 1186.82,1574.6 1175.5,1563.08C1172.19,1559.72 1169.69,1557.49 1168.31,1556.64C1165.88,1555.15 1163.98,1554.86 1162.92,1555C1158.97,1555.25 1155.96,1558.7 1156.2,1562.7C1156.36,1565.3 1157.84,1567.49 1159.94,1568.64Z" fill="#ead67f" transform="matrix(.53354 -.00265 .00261 .52582 624.863 379.053)"/></g><g id="change5_34"><path d="M1229.88,1501.9C1222.42,1501.33 1214.72,1500.88 1207.16,1500.72C1188.46,1500.32 1170.53,1501.92 1157.75,1506.99C1143.47,1512.66 1128.9,1521.48 1114.28,1532.09C1086.01,1552.58 1057.39,1579.94 1029.82,1601.53C1003.24,1622.39 972.441,1653.78 945.694,1676.68C932.576,1687.91 920.784,1697.13 911.082,1700.7C903.934,1703.4 894.375,1700.93 886.129,1696.88C880.957,1694.34 876.021,1691.34 872.806,1687.29C871.171,1685.24 869.63,1683.18 869.376,1680.76C867.943,1668.3 872.83,1646.85 879.523,1623.38C888.692,1591.22 901.323,1555.9 909.543,1533.16C910.726,1530.39 909.469,1527.16 906.737,1525.96C904.005,1524.76 900.826,1526.04 899.643,1528.81C886.994,1554.37 866.174,1596.34 853.27,1631.37C845.641,1652.09 841.255,1670.62 841.433,1682.62C841.833,1699.12 854.489,1715.33 871.846,1724.99C887.91,1733.92 907.541,1736.29 921.937,1731.18C931.027,1727.86 941.8,1721.19 953.402,1712.15C982.556,1689.44 1018.62,1651.01 1049.18,1626.83C1076.34,1605.27 1104.46,1577.96 1132.29,1557.46C1144.64,1548.37 1156.87,1540.63 1168.96,1535.72C1178.67,1531.77 1192.4,1531.07 1206.66,1531.25C1231.92,1531.57 1258.72,1535.19 1272.98,1535.11C1282.45,1535.05 1288.79,1532.57 1291.58,1530.33C1297.61,1525.5 1299.85,1519.32 1296.95,1511.3C1296.14,1509.06 1292.65,1503.46 1284.28,1499.88C1278.45,1497.39 1267.81,1493.81 1259.1,1488.66C1255.74,1486.67 1252.33,1484.93 1251.16,1482.1C1247.03,1472.2 1241.93,1452.9 1236.6,1430.7C1231.75,1410.49 1227,1387.9 1222.43,1367.54C1221.47,1363.25 1220.53,1359.06 1219.61,1355C1219.61,1355 1231.94,1371.7 1231.94,1371.7C1234.15,1375.04 1238.6,1375.92 1241.88,1373.69C1245.17,1371.45 1246.04,1366.93 1243.84,1363.6L1206.29,1300.03C1203.41,1295.67 1197.9,1293.97 1193.11,1295.94C1188.32,1297.92 1185.55,1303.04 1186.48,1308.2C1186.48,1308.2 1189.52,1332.49 1194.84,1363.68C1197.78,1380.94 1201.6,1400.25 1205.45,1418.8C1212.01,1450.44 1219.23,1479.78 1224.62,1493.27C1225.83,1496.26 1227.61,1499.16 1229.88,1501.9Z" fill="#ead67f" transform="matrix(.53354 -.00265 .00261 .52582 624.863 379.053)"/></g></g><g><g id="change5_38"><path d="M1658.34,1705.31L1675.66,1726.67L1660.91,1754.67L1631.34,1732.13L1658.34,1705.31Z" fill="#ead67f" transform="matrix(.53354 -.00265 .00261 .52582 624.863 379.053)"/></g><g id="change5_39"><path d="M1596.57,1705.31L1624.61,1729.99L1600,1761.08L1575.06,1738.27L1596.57,1705.31Z" fill="#ead67f" transform="matrix(.53354 -.00265 .00261 .52582 624.863 379.053)"/></g><g id="change5_40"><path d="M1836.77,1577.75C1836.77,1577.75 1824.34,1620.72 1822.59,1633.32C1821.65,1640.03 1824.59,1648.33 1826.25,1653.31C1827.49,1657.01 1830.38,1663.45 1832.55,1663.19C1834.73,1662.94 1837.8,1651.79 1839.28,1651.76C1840.76,1651.74 1842.91,1659.52 1841.42,1663.04C1839.16,1668.39 1830.31,1683.57 1825.74,1683.86C1821.16,1684.14 1815.49,1672.09 1813.99,1664.77C1812.05,1655.34 1810.95,1639.39 1814.12,1627.31C1817.91,1612.81 1836.77,1577.75 1836.77,1577.75Z" fill="#ead67f" transform="matrix(.53354 -.00265 .00261 .52582 624.863 379.053)"/></g><g id="change5_5"><path d="M1836.77,1577.75C1836.77,1577.75 1824.34,1620.72 1822.59,1633.32C1821.65,1640.03 1824.59,1648.33 1826.25,1653.31C1827.49,1657.01 1830.38,1663.45 1832.55,1663.19C1834.73,1662.94 1837.8,1651.79 1839.28,1651.76C1840.76,1651.74 1842.91,1659.52 1841.42,1663.04C1839.16,1668.39 1830.31,1683.57 1825.74,1683.86C1821.16,1684.14 1815.49,1672.09 1813.99,1664.77C1812.05,1655.34 1810.95,1639.39 1814.12,1627.31C1817.91,1612.81 1836.77,1577.75 1836.77,1577.75Z" fill="#ead67f" transform="matrix(.53354 -.00265 .00261 .52582 426.525 363.84)"/></g><g id="change5_26"><path d="M1836.77,1577.75C1836.77,1577.75 1824.34,1620.72 1822.59,1633.32C1821.65,1640.03 1824.59,1648.33 1826.25,1653.31C1827.49,1657.01 1830.38,1663.45 1832.55,1663.19C1834.73,1662.94 1837.8,1651.79 1839.28,1651.76C1840.76,1651.74 1842.91,1659.52 1841.42,1663.04C1839.16,1668.39 1830.31,1683.57 1825.74,1683.86C1821.16,1684.14 1815.49,1672.09 1813.99,1664.77C1812.05,1655.34 1810.95,1639.39 1814.12,1627.31C1817.91,1612.81 1836.77,1577.75 1836.77,1577.75Z" fill="#ead67f" transform="matrix(.53354 -.00265 .00261 .52582 360.84 336.266)"/></g><g id="change5_50"><path d="M1836.77,1577.75C1836.77,1577.75 1824.34,1620.72 1822.59,1633.32C1821.65,1640.03 1824.59,1648.33 1826.25,1653.31C1827.49,1657.01 1830.38,1663.45 1832.55,1663.19C1834.73,1662.94 1837.8,1651.79 1839.28,1651.76C1840.76,1651.74 1842.91,1659.52 1841.42,1663.04C1839.16,1668.39 1830.31,1683.57 1825.74,1683.86C1821.16,1684.14 1815.49,1672.09 1813.99,1664.77C1812.05,1655.34 1810.95,1639.39 1814.12,1627.31C1817.91,1612.81 1836.77,1577.75 1836.77,1577.75Z" fill="#ead67f" transform="matrix(.53354 -.00265 .00261 .52582 417.943 236.51)"/></g><g id="change5_24"><path d="M1836.77,1577.75C1836.77,1577.75 1824.34,1620.72 1822.59,1633.32C1821.65,1640.03 1824.59,1648.33 1826.25,1653.31C1827.49,1657.01 1830.38,1663.45 1832.55,1663.19C1834.73,1662.94 1837.8,1651.79 1839.28,1651.76C1840.76,1651.74 1842.91,1659.52 1841.42,1663.04C1839.16,1668.39 1830.31,1683.57 1825.74,1683.86C1821.16,1684.14 1815.49,1672.09 1813.99,1664.77C1812.05,1655.34 1810.95,1639.39 1814.12,1627.31C1817.91,1612.81 1836.77,1577.75 1836.77,1577.75Z" fill="#ead67f" transform="matrix(.53354 -.00265 .00261 .52582 475.5 236.224)"/></g><g id="change5_37"><path d="M1836.77,1577.75C1836.77,1577.75 1824.34,1620.72 1822.59,1633.32C1821.65,1640.03 1824.59,1648.33 1826.25,1653.31C1827.49,1657.01 1830.38,1663.45 1832.55,1663.19C1834.73,1662.94 1837.8,1651.79 1839.28,1651.76C1840.76,1651.74 1842.91,1659.52 1841.42,1663.04C1839.16,1668.39 1830.31,1683.57 1825.74,1683.86C1821.16,1684.14 1815.49,1672.09 1813.99,1664.77C1812.05,1655.34 1810.95,1639.39 1814.12,1627.31C1817.91,1612.81 1836.77,1577.75 1836.77,1577.75Z" fill="#ead67f" transform="matrix(.53354 -.00265 .00261 .52582 320.239 508.812)"/></g><g id="change5_51"><path d="M1836.77,1577.75C1836.77,1577.75 1824.34,1620.72 1822.59,1633.32C1821.65,1640.03 1824.59,1648.33 1826.25,1653.31C1827.49,1657.01 1830.38,1663.45 1832.55,1663.19C1834.73,1662.94 1837.8,1651.79 1839.28,1651.76C1840.76,1651.74 1842.91,1659.52 1841.42,1663.04C1839.16,1668.39 1830.31,1683.57 1825.74,1683.86C1821.16,1684.14 1815.49,1672.09 1813.99,1664.77C1812.05,1655.34 1810.95,1639.39 1814.12,1627.31C1817.91,1612.81 1836.77,1577.75 1836.77,1577.75Z" fill="#ead67f" transform="matrix(.53354 -.00265 .00261 .52582 165.906 441.91)"/></g><g id="change5_16"><path d="M1836.77,1577.75C1836.77,1577.75 1824.34,1620.72 1822.59,1633.32C1821.65,1640.03 1824.59,1648.33 1826.25,1653.31C1827.49,1657.01 1830.38,1663.45 1832.55,1663.19C1834.73,1662.94 1837.8,1651.79 1839.28,1651.76C1840.76,1651.74 1842.91,1659.52 1841.42,1663.04C1839.16,1668.39 1830.31,1683.57 1825.74,1683.86C1821.16,1684.14 1815.49,1672.09 1813.99,1664.77C1812.05,1655.34 1810.95,1639.39 1814.12,1627.31C1817.91,1612.81 1836.77,1577.75 1836.77,1577.75Z" fill="#ead67f" transform="matrix(.53354 -.00265 .00261 .52582 165.386 337.236)"/></g><g id="change5_2"><path d="M1836.77,1577.75C1836.77,1577.75 1824.34,1620.72 1822.59,1633.32C1821.65,1640.03 1824.59,1648.33 1826.25,1653.31C1827.49,1657.01 1830.38,1663.45 1832.55,1663.19C1834.73,1662.94 1837.8,1651.79 1839.28,1651.76C1840.76,1651.74 1842.91,1659.52 1841.42,1663.04C1839.16,1668.39 1830.31,1683.57 1825.74,1683.86C1821.16,1684.14 1815.49,1672.09 1813.99,1664.77C1812.05,1655.34 1810.95,1639.39 1814.12,1627.31C1817.91,1612.81 1836.77,1577.75 1836.77,1577.75Z" fill="#ead67f" transform="matrix(.53354 -.00265 .00261 .52582 344.31 208.975)"/></g><g id="change5_1"><path d="M1836.77,1577.75C1836.77,1577.75 1824.34,1620.72 1822.59,1633.32C1821.65,1640.03 1824.59,1648.33 1826.25,1653.31C1827.49,1657.01 1830.38,1663.45 1832.55,1663.19C1834.73,1662.94 1837.8,1651.79 1839.28,1651.76C1840.76,1651.74 1842.91,1659.52 1841.42,1663.04C1839.16,1668.39 1830.31,1683.57 1825.74,1683.86C1821.16,1684.14 1815.49,1672.09 1813.99,1664.77C1812.05,1655.34 1810.95,1639.39 1814.12,1627.31C1817.91,1612.81 1836.77,1577.75 1836.77,1577.75Z" fill="#ead67f" transform="matrix(.53354 -.00265 .00261 .52582 156.75 198.99)"/></g><g id="change5_9"><path d="M1836.77,1577.75C1836.77,1577.75 1824.34,1620.72 1822.59,1633.32C1821.65,1640.03 1824.59,1648.33 1826.25,1653.31C1827.49,1657.01 1830.38,1663.45 1832.55,1663.19C1834.73,1662.94 1837.8,1651.79 1839.28,1651.76C1840.76,1651.74 1842.91,1659.52 1841.42,1663.04C1839.16,1668.39 1830.31,1683.57 1825.74,1683.86C1821.16,1684.14 1815.49,1672.09 1813.99,1664.77C1812.05,1655.34 1810.95,1639.39 1814.12,1627.31C1817.91,1612.81 1836.77,1577.75 1836.77,1577.75Z" fill="#ead67f" transform="matrix(-.42326 -.18282 .1807 -.40623 1877.475 2489.726)"/></g><g id="change5_55"><path d="M1836.77,1577.75C1836.77,1577.75 1824.34,1620.72 1822.59,1633.32C1821.65,1640.03 1824.59,1648.33 1826.25,1653.31C1827.49,1657.01 1830.38,1663.45 1832.55,1663.19C1834.73,1662.94 1837.8,1651.79 1839.28,1651.76C1840.76,1651.74 1842.91,1659.52 1841.42,1663.04C1839.16,1668.39 1830.31,1683.57 1825.74,1683.86C1821.16,1684.14 1815.49,1672.09 1813.99,1664.77C1812.05,1655.34 1810.95,1639.39 1814.12,1627.31C1817.91,1612.81 1836.77,1577.75 1836.77,1577.75Z" fill="#ead67f" transform="matrix(-.42326 -.18282 .1807 -.40623 1604.134 2408.079)"/></g><g id="change5_10"><path d="M1836.77,1577.75C1836.77,1577.75 1824.34,1620.72 1822.59,1633.32C1821.65,1640.03 1824.59,1648.33 1826.25,1653.31C1827.49,1657.01 1830.38,1663.45 1832.55,1663.19C1834.73,1662.94 1837.8,1651.79 1839.28,1651.76C1840.76,1651.74 1842.91,1659.52 1841.42,1663.04C1839.16,1668.39 1830.31,1683.57 1825.74,1683.86C1821.16,1684.14 1815.49,1672.09 1813.99,1664.77C1812.05,1655.34 1810.95,1639.39 1814.12,1627.31C1817.91,1612.81 1836.77,1577.75 1836.77,1577.75Z" fill="#ead67f" transform="matrix(-.45595 -.0743 .07348 -.43758 1784.774 2153.13)"/></g><g id="change5_27"><path d="M1836.77,1577.75C1836.77,1577.75 1824.34,1620.72 1822.59,1633.32C1821.65,1640.03 1824.59,1648.33 1826.25,1653.31C1827.49,1657.01 1830.38,1663.45 1832.55,1663.19C1834.73,1662.94 1837.8,1651.79 1839.28,1651.76C1840.76,1651.74 1842.91,1659.52 1841.42,1663.04C1839.16,1668.39 1830.31,1683.57 1825.74,1683.86C1821.16,1684.14 1815.49,1672.09 1813.99,1664.77C1812.05,1655.34 1810.95,1639.39 1814.12,1627.31C1817.91,1612.81 1836.77,1577.75 1836.77,1577.75Z" fill="#ead67f" transform="matrix(-.32718 .32173 -.31784 -.31394 2572.803 1243.431)"/></g><g id="change5_54"><path d="M1836.77,1577.75C1836.77,1577.75 1824.34,1620.72 1822.59,1633.32C1821.65,1640.03 1824.59,1648.33 1826.25,1653.31C1827.49,1657.01 1830.38,1663.45 1832.55,1663.19C1834.73,1662.94 1837.8,1651.79 1839.28,1651.76C1840.76,1651.74 1842.91,1659.52 1841.42,1663.04C1839.16,1668.39 1830.31,1683.57 1825.74,1683.86C1821.16,1684.14 1815.49,1672.09 1813.99,1664.77C1812.05,1655.34 1810.95,1639.39 1814.12,1627.31C1817.91,1612.81 1836.77,1577.75 1836.77,1577.75Z" fill="#ead67f" transform="matrix(-.23412 .39273 -.388 -.22463 2437.778 639.7)"/></g><g id="change5_41"><path d="M1547.26,1868.89C1552.84,1872.16 1536.69,1883.32 1529.04,1887.35C1518.37,1892.98 1483.06,1902.98 1483.24,1902.63C1483.99,1901.16 1459.25,1909.71 1458.35,1906.92C1457.46,1904.13 1477.87,1885.91 1477.87,1885.91C1477.87,1885.91 1465.01,1873.84 1464.27,1867.42C1463.53,1861 1469.26,1853.42 1473.43,1847.38C1477.82,1841.04 1483.63,1833.2 1490.61,1829.34C1497.6,1825.48 1510.23,1823.56 1515.33,1824.23C1518.92,1824.7 1524.23,1831.33 1521.23,1833.34C1516.4,1836.58 1493.35,1839.85 1486.41,1843.62C1482.27,1845.88 1478.07,1852 1479.59,1856.01C1481.12,1860.02 1489.08,1866.45 1495.56,1867.68C1506.83,1869.83 1541.68,1865.61 1547.26,1868.89Z" fill="#ead67f" transform="matrix(.53354 -.00265 .00261 .52582 624.863 379.053)"/></g><g id="change5_42"><path d="M1165.86,1881.03L1150.4,1914.27L1178.57,1939.7L1197.74,1907.48L1165.86,1881.03Z" fill="#ead67f" transform="matrix(.53354 -.00265 .00261 .52582 624.863 379.053)"/></g><g id="change5_43"><path d="M1058.22,1659.12L1035.79,1688.58L1069.24,1718.09L1094.09,1683.86L1058.22,1659.12Z" fill="#ead67f" transform="matrix(.53354 -.00265 .00261 .52582 624.863 379.053)"/></g><g id="change5_44"><path d="M1118.2,1652.8L1097.3,1683.86L1129.34,1712.24L1150.4,1680.7L1118.2,1652.8Z" fill="#ead67f" transform="matrix(.53354 -.00265 .00261 .52582 624.863 379.053)"/></g><g id="change5_45"><path d="M1045.49,1280.68L1035.79,1258.65C1035.79,1258.65 1085.82,1232.94 1111.65,1221.85C1152.89,1204.13 1283.22,1152.39 1283.22,1152.39C1283.22,1152.39 1243.67,1156.6 1225.04,1163.06C1182.56,1177.79 1062.34,1222.53 1028.31,1240.75C1018.76,1245.87 1020.89,1272.4 1020.89,1272.4C1020.89,1272.4 1032.1,1293.58 1035.79,1291.31C1039.91,1288.78 1045.49,1280.68 1045.49,1280.68Z" fill="#ead67f" transform="matrix(.53354 -.00265 .00261 .52582 624.863 379.053)"/></g><g id="change5_46"><path d="M1070.55,1385.38C1070.55,1385.38 1058.85,1395.41 1061.34,1400.87C1064,1406.69 1079.24,1412.57 1086.5,1420.29C1095.99,1430.38 1118.28,1461.43 1118.28,1461.43L1129.09,1408.52C1129.09,1408.52 1133.11,1386.03 1136.21,1382.73C1139.15,1379.59 1147.65,1388.74 1147.65,1388.74L1154.32,1385.89C1154.32,1385.89 1150.24,1364.91 1146.91,1360.63C1144.35,1357.33 1136.29,1356.5 1134.37,1360.22C1129.06,1370.49 1115.05,1422.28 1115.05,1422.28L1070.55,1385.38Z" fill="#ead67f" transform="matrix(.53354 -.00265 .00261 .52582 624.863 379.053)"/></g><g id="change5_20"><path d="M1070.55,1385.38C1070.55,1385.38 1058.85,1395.41 1061.34,1400.87C1064,1406.69 1079.24,1412.57 1086.5,1420.29C1095.99,1430.38 1118.28,1461.43 1118.28,1461.43L1129.09,1408.52C1129.09,1408.52 1133.11,1386.03 1136.21,1382.73C1139.15,1379.59 1147.65,1388.74 1147.65,1388.74L1154.32,1385.89C1154.32,1385.89 1150.24,1364.91 1146.91,1360.63C1144.35,1357.33 1136.29,1356.5 1134.37,1360.22C1129.06,1370.49 1115.05,1422.28 1115.05,1422.28L1070.55,1385.38Z" fill="#ead67f" transform="matrix(.53354 -.00265 .00261 .52582 861.785 732.832)"/></g><g id="change5_47"><path d="M1160.12,1844.72C1160.12,1844.72 1259.04,1757.17 1281.35,1739.5C1284.64,1736.88 1290.15,1740.49 1293.95,1738.67C1297.76,1736.85 1304.67,1733.34 1304.24,1728.55C1303.65,1721.92 1293.42,1707.14 1290.42,1698.88C1288.1,1692.5 1290.59,1682.23 1286.21,1678.95C1281.83,1675.67 1268.62,1675.48 1264.13,1679.19C1259.65,1682.91 1258.69,1693.76 1259.32,1701.26C1260.05,1709.92 1268.51,1731.16 1268.51,1731.16L1187.33,1812.34L1160.12,1844.72Z" fill="#ead67f" transform="matrix(.53354 -.00265 .00261 .52582 624.863 379.053)"/></g><g id="change5_17"><path d="M1160.12,1844.72C1160.12,1844.72 1259.04,1757.17 1281.35,1739.5C1284.64,1736.88 1290.15,1740.49 1293.95,1738.67C1297.76,1736.85 1304.67,1733.34 1304.24,1728.55C1303.65,1721.92 1293.42,1707.14 1290.42,1698.88C1288.1,1692.5 1290.59,1682.23 1286.21,1678.95C1281.83,1675.67 1268.62,1675.48 1264.13,1679.19C1259.65,1682.91 1258.69,1693.76 1259.32,1701.26C1260.05,1709.92 1268.51,1731.16 1268.51,1731.16L1187.33,1812.34L1160.12,1844.72Z" fill="#ead67f" transform="matrix(.53354 -.00265 .00261 .52582 820.513 258.847)"/></g><g id="change5_3"><path d="M1160.12,1844.72C1160.12,1844.72 1259.04,1757.17 1281.35,1739.5C1284.64,1736.88 1290.15,1740.49 1293.95,1738.67C1297.76,1736.85 1304.67,1733.34 1304.24,1728.55C1303.65,1721.92 1293.42,1707.14 1290.42,1698.88C1288.1,1692.5 1290.59,1682.23 1286.21,1678.95C1281.83,1675.67 1268.62,1675.48 1264.13,1679.19C1259.65,1682.91 1258.69,1693.76 1259.32,1701.26C1260.05,1709.92 1268.51,1731.16 1268.51,1731.16L1187.33,1812.34L1160.12,1844.72Z" fill="#ead67f" transform="matrix(.53354 -.00265 .00261 .52582 435.931 251.309)"/></g></g></g></svg>